<svg xmlns="http://www.w3.org/2000/svg" version="1.1" xmlns:xlink="http://www.w3.org/1999/xlink" xmlns:svgjs="http://svgjs.dev/svgjs" width="1500" height="272" viewBox="0 0 1500 272"><g transform="matrix(1,0,0,1,-0.9090909090909918,0.3324708284567066)"><svg viewBox="0 0 396 72" data-background-color="#ffffff" preserveAspectRatio="xMidYMid meet" height="272" width="1500" xmlns="http://www.w3.org/2000/svg" xmlns:xlink="http://www.w3.org/1999/xlink"><g id="tight-bounds" transform="matrix(1,0,0,1,0.2400000000000091,-0.08800698400324336)"><svg viewBox="0 0 395.52 72.17601396800647" height="72.17601396800647" width="395.52"><g><svg viewBox="0 0 395.52 72.17601396800647" height="72.17601396800647" width="395.52"><g><svg viewBox="0 0 395.52 72.17601396800647" height="72.17601396800647" width="395.52"><g><svg viewBox="0 0 395.52 72.17601396800647" height="72.17601396800647" width="395.52"><g><svg viewBox="0 0 395.52 72.17601396800647" height="72.17601396800647" width="395.52"><g id="textblocktransform"><svg viewBox="0 0 395.52 72.17601396800647" height="72.17601396800647" width="395.52" id="textblock"><g><svg viewBox="0 0 395.52 72.17601396800647" height="72.17601396800647" width="395.52"><g transform="matrix(1,0,0,1,0,0)"><svg width="395.52" viewBox="-0.3500000000000001 -43 309.1944378199782 56.95" height="72.17601396800647" data-palette-color="#a7d4f2"><g transform="matrix(1,0,0,1,0,0)"><g><svg width="5.347792387486382" viewBox="-0.48 -39.86 38.73 43.36" height="6.004750785836163" data-palette-color="#a7d4f2" id="scriptelement" x="297.302571626235" y="-37.13440539291808"><path d="M35.25-23.63L35.25-23.63 27.47-23.63Q27.25-25.14 26.6-26.32 25.94-27.5 24.91-28.34 23.88-29.17 22.54-29.62 21.2-30.06 19.64-30.06L19.64-30.06Q16.81-30.06 14.72-28.67 12.62-27.27 11.47-24.62 10.32-21.96 10.32-18.18L10.32-18.18Q10.32-14.29 11.48-11.65 12.64-9 14.74-7.65 16.83-6.3 19.58-6.3L19.58-6.3Q21.13-6.3 22.45-6.71 23.77-7.12 24.8-7.91 25.83-8.7 26.52-9.84 27.2-10.97 27.47-12.43L27.47-12.43 35.25-12.39Q34.94-9.89 33.74-7.57 32.55-5.26 30.53-3.44 28.52-1.62 25.74-0.56 22.96 0.5 19.46 0.5L19.46 0.5Q14.6 0.5 10.77-1.7 6.94-3.91 4.73-8.08 2.52-12.25 2.52-18.18L2.52-18.18Q2.52-24.13 4.76-28.3 7-32.48 10.83-34.67 14.67-36.86 19.46-36.86L19.46-36.86Q22.62-36.86 25.33-35.97 28.04-35.09 30.13-33.39 32.23-31.69 33.55-29.24 34.87-26.79 35.25-23.63Z" opacity="1" transform="matrix(1,0,0,1,0,0)" fill="#0f0f0f" class="undefined-123" data-fill-palette-color="primary" id="yy-123"></path></svg></g></g><path d="M294.108-34.132C294.108-37.373 296.736-40 299.976-40 303.217-40 305.844-37.373 305.844-34.132 305.844-30.891 303.217-28.264 299.976-28.264 296.736-28.264 294.108-30.891 294.108-34.132ZM299.976-28.817C302.912-28.817 305.292-31.197 305.292-34.132 305.292-37.068 302.912-39.447 299.976-39.447 297.041-39.447 294.661-37.068 294.661-34.132 294.661-31.197 297.041-28.817 299.976-28.817Z" fill="#a7d4f2" id="scriptcircle" data-fill-palette-color="primary"></path><path d="M24.95 0L17.85 0 17.85-15.25 9.75-15.25 9.75 0 2.65 0 2.65-34.6 9.75-34.6 9.75-20.8 17.85-20.8 17.85-34.6 24.95-34.6 24.95 0ZM49.65-13.85Q49.65-13.3 49.5-11.2L49.5-11.2 35.95-11.2Q36.15-7.3 37.32-5.8 38.5-4.3 40.6-4.3L40.6-4.3Q42.05-4.3 43.3-4.83 44.55-5.35 46-6.45L46-6.45 48.8-2.7Q45.2 0.8 40.15 0.8L40.15 0.8Q34.8 0.8 31.95-2.85 29.1-6.5 29.1-13.05L29.1-13.05Q29.1-19.6 31.8-23.45 34.5-27.3 39.55-27.3L39.55-27.3Q44.3-27.3 46.97-23.88 49.65-20.45 49.65-13.85L49.65-13.85ZM43.05-15.4L43.05-15.8Q43.05-19.4 42.25-21.03 41.45-22.65 39.6-22.65L39.6-22.65Q37.9-22.65 37.02-21.05 36.15-19.45 35.95-15.4L35.95-15.4 43.05-15.4ZM66.4-27.3Q69.25-27.3 70.9-25.25 72.55-23.2 72.55-19.75L72.55-19.75 72.55 0 65.75 0 65.75-19Q65.75-20.65 65.3-21.35 64.84-22.05 63.95-22.05L63.95-22.05Q62.15-22.05 60.25-18.45L60.25-18.45 60.25 0 53.45 0 53.45-26.5 59.4-26.5 59.9-23.15Q61.2-25.2 62.75-26.25 64.3-27.3 66.4-27.3L66.4-27.3ZM89.74-27.2Q90.89-27.2 91.79-26.85L91.79-26.85 90.69-20.3Q89.79-20.6 88.84-20.6L88.84-20.6Q86.94-20.6 85.89-19.03 84.84-17.45 84.29-14.35L84.29-14.35 84.29 0 77.49 0 77.49-26.5 83.44-26.5 83.94-22Q85.79-27.2 89.74-27.2L89.74-27.2ZM94.19-26.5L100.99-26.5 100.99 0 94.19 0 94.19-26.5ZM97.59-40Q99.34-40 100.44-38.85 101.54-37.7 101.54-35.95L101.54-35.95Q101.54-34.25 100.44-33.13 99.34-32 97.59-32L97.59-32Q95.79-32 94.69-33.13 93.59-34.25 93.59-35.95L93.59-35.95Q93.59-37.7 94.69-38.85 95.79-40 97.59-40L97.59-40ZM119.99-26.5L125.94-26.5 125.94 10.95 119.14 10.2 119.14-2.5Q116.99 0.8 113.49 0.8L113.49 0.8Q109.49 0.8 107.29-2.85 105.09-6.5 105.09-13.25L105.09-13.25Q105.09-17.55 106.21-20.73 107.34-23.9 109.36-25.6 111.39-27.3 114.04-27.3L114.04-27.3Q117.44-27.3 119.69-24.1L119.69-24.1 119.99-26.5ZM115.54-4.25Q116.64-4.25 117.49-5 118.34-5.75 119.14-7.25L119.14-7.25 119.14-19.75Q118.39-20.95 117.59-21.58 116.79-22.2 115.79-22.2L115.79-22.2Q114.14-22.2 113.14-20.1 112.14-18 112.14-13.25L112.14-13.25Q112.14-8.2 113.04-6.23 113.94-4.25 115.54-4.25L115.54-4.25ZM149.74-26.5L149.74 0 143.79 0 143.49-3.2Q141.04 0.8 137.14 0.8L137.14 0.8Q134.24 0.8 132.56-1.28 130.89-3.35 130.89-6.7L130.89-6.7 130.89-26.5 137.69-26.5 137.69-7.05Q137.69-4.3 139.54-4.3L139.54-4.3Q141.44-4.3 142.94-7.5L142.94-7.5 142.94-26.5 149.74-26.5ZM174.38-13.85Q174.38-13.3 174.23-11.2L174.23-11.2 160.68-11.2Q160.88-7.3 162.06-5.8 163.23-4.3 165.33-4.3L165.33-4.3Q166.78-4.3 168.03-4.83 169.28-5.35 170.73-6.45L170.73-6.45 173.53-2.7Q169.93 0.8 164.88 0.8L164.88 0.8Q159.53 0.8 156.68-2.85 153.83-6.5 153.83-13.05L153.83-13.05Q153.83-19.6 156.53-23.45 159.23-27.3 164.28-27.3L164.28-27.3Q169.03-27.3 171.71-23.88 174.38-20.45 174.38-13.85L174.38-13.85ZM167.78-15.4L167.78-15.8Q167.78-19.4 166.98-21.03 166.18-22.65 164.33-22.65L164.33-22.65Q162.63-22.65 161.76-21.05 160.88-19.45 160.68-15.4L160.68-15.4 167.78-15.4ZM199.78-35.4Q202.48-35.4 204.6-34.48 206.73-33.55 208.68-31.7L208.68-31.7 205.33-27.75Q204.08-28.9 202.85-29.48 201.63-30.05 200.23-30.05L200.23-30.05Q197.38-30.05 195.78-27.13 194.18-24.2 194.18-17.35L194.18-17.35Q194.18-10.65 195.78-7.7 197.38-4.75 200.28-4.75L200.28-4.75Q201.83-4.75 203-5.38 204.18-6 205.68-7.3L205.68-7.3 208.98-3.45Q205.03 0.8 199.78 0.8L199.78 0.8Q193.83 0.8 190.33-3.78 186.83-8.35 186.83-17.35L186.83-17.35Q186.83-23.3 188.48-27.35 190.13-31.4 193.05-33.4 195.98-35.4 199.78-35.4L199.78-35.4ZM221.53-27.3Q226.63-27.3 229.48-23.75 232.33-20.2 232.33-13.25L232.33-13.25Q232.33-6.6 229.45-2.9 226.58 0.8 221.53 0.8L221.53 0.8Q216.48 0.8 213.6-2.8 210.73-6.4 210.73-13.25L210.73-13.25Q210.73-20.05 213.58-23.68 216.43-27.3 221.53-27.3L221.53-27.3ZM221.53-22.15Q219.58-22.15 218.68-20.13 217.78-18.1 217.78-13.25L217.78-13.25Q217.78-8.35 218.68-6.33 219.58-4.3 221.53-4.3L221.53-4.3Q223.48-4.3 224.38-6.35 225.28-8.4 225.28-13.25L225.28-13.25Q225.28-18.15 224.38-20.15 223.48-22.15 221.53-22.15L221.53-22.15ZM244.07-27.3Q246.52-27.3 248.6-26.48 250.67-25.65 252.22-24.1L252.22-24.1 249.67-20.4Q246.97-22.35 244.62-22.35L244.62-22.35Q243.27-22.35 242.52-21.68 241.77-21 241.77-19.75L241.77-19.75Q241.77-18.9 242.15-18.32 242.52-17.75 243.47-17.18 244.42-16.6 246.37-15.8L246.37-15.8Q249.77-14.45 251.37-12.63 252.97-10.8 252.97-7.7L252.97-7.7Q252.97-3.75 250.22-1.48 247.47 0.8 243.17 0.8L243.17 0.8Q240.42 0.8 238.07-0.2 235.72-1.2 234.02-3L234.02-3 237.22-6.55Q240.22-4.1 242.87-4.1L242.87-4.1Q244.37-4.1 245.22-4.9 246.07-5.7 246.07-7.1L246.07-7.1Q246.07-8.65 245.17-9.53 244.27-10.4 241.47-11.5L241.47-11.5Q238.02-12.9 236.55-14.7 235.07-16.5 235.07-19.3L235.07-19.3Q235.07-21.55 236.15-23.38 237.22-25.2 239.27-26.25 241.32-27.3 244.07-27.3L244.07-27.3ZM267.97-5.4L270.27-1.2Q269.02-0.2 267.45 0.3 265.87 0.8 264.27 0.8L264.27 0.8Q260.62 0.8 258.77-1.28 256.92-3.35 256.92-6.9L256.92-6.9 256.92-21.65 253.97-21.65 253.97-26.5 256.92-26.5 256.92-32.3 263.72-33.15 263.72-26.5 268.67-26.5 268.02-21.65 263.72-21.65 263.72-6.95Q263.72-4.65 265.62-4.65L265.62-4.65Q266.27-4.65 266.77-4.83 267.27-5 267.97-5.4L267.97-5.4ZM289.97-6.7Q289.97-5.4 290.29-4.8 290.62-4.2 291.42-3.8L291.42-3.8 290.02 0.7Q287.92 0.45 286.62-0.38 285.32-1.2 284.67-2.95L284.67-2.95Q282.37 0.8 278.17 0.8L278.17 0.8Q274.87 0.8 272.92-1.45 270.97-3.7 270.97-7.4L270.97-7.4Q270.97-11.75 273.64-14.03 276.32-16.3 281.47-16.3L281.47-16.3 283.32-16.3 283.32-17.9Q283.32-20.35 282.52-21.33 281.72-22.3 279.77-22.3L279.77-22.3Q277.52-22.3 274.02-21L274.02-21 272.47-25.35Q274.52-26.3 276.77-26.8 279.02-27.3 281.02-27.3L281.02-27.3Q289.97-27.3 289.97-18.25L289.97-18.25 289.97-6.7ZM280.12-4.1Q282.22-4.1 283.32-7L283.32-7 283.32-12.35 282.12-12.35Q279.82-12.35 278.74-11.28 277.67-10.2 277.67-7.95L277.67-7.95Q277.67-6.05 278.32-5.08 278.97-4.1 280.12-4.1L280.12-4.1Z" opacity="1" transform="matrix(1,0,0,1,0,0)" fill="#a7d4f2" class="wordmark-text-0" data-fill-palette-color="primary" id="text-0"></path></svg></g></svg></g></svg></g></svg></g><g></g></svg></g></svg></g></svg></g><defs></defs></svg><rect width="395.52" height="72.17601396800647" fill="none" stroke="none" visibility="hidden"></rect></g></svg></g></svg>